<?xml version="1.0" encoding="UTF-8" standalone="no"?>
<!-- Created with Inkscape (http://www.inkscape.org/) -->

<svg
   xmlns:dc="http://purl.org/dc/elements/1.1/"
   xmlns:cc="http://creativecommons.org/ns#"
   xmlns:rdf="http://www.w3.org/1999/02/22-rdf-syntax-ns#"
   xmlns:svg="http://www.w3.org/2000/svg"
   xmlns="http://www.w3.org/2000/svg"
   xmlns:sodipodi="http://sodipodi.sourceforge.net/DTD/sodipodi-0.dtd"
   xmlns:inkscape="http://www.inkscape.org/namespaces/inkscape"
   width="39mm"
   height="39mm"
   viewBox="0 0 39 39"
   version="1.1"
   id="svg8"
   inkscape:version="0.92.2 (5c3e80d, 2017-08-06)"
   sodipodi:docname="favicon.svg">
  <defs
     id="defs2" />
  <sodipodi:namedview
     id="base"
     pagecolor="#ffffff"
     bordercolor="#666666"
     borderopacity="1.0"
     inkscape:pageopacity="0.0"
     inkscape:pageshadow="2"
     inkscape:zoom="2.4323368"
     inkscape:cx="97.604652"
     inkscape:cy="50.963816"
     inkscape:document-units="mm"
     inkscape:current-layer="layer1"
     showgrid="false"
     inkscape:window-width="1600"
     inkscape:window-height="838"
     inkscape:window-x="-8"
     inkscape:window-y="-8"
     inkscape:window-maximized="1" />
  <metadata
     id="metadata5">
    <rdf:RDF>
      <cc:Work
         rdf:about="">
        <dc:format>image/svg+xml</dc:format>
        <dc:type
           rdf:resource="http://purl.org/dc/dcmitype/StillImage" />
        <dc:title></dc:title>
      </cc:Work>
    </rdf:RDF>
  </metadata>
  <g
     inkscape:label="Capa 1"
     inkscape:groupmode="layer"
     id="layer1"
     transform="translate(0,-258)">
    <g
       aria-label=""
       style="font-style:normal;font-variant:normal;font-weight:normal;font-stretch:normal;font-size:44.39677048px;line-height:125%;font-family:IcoFont;-inkscape-font-specification:IcoFont;text-align:center;letter-spacing:0px;word-spacing:0px;text-anchor:middle;fill:#a33db4;fill-opacity:1;stroke:none;stroke-width:3.94637942px;stroke-linecap:butt;stroke-linejoin:miter;stroke-opacity:1"
       id="text817">
      <path
         d="m 19.499636,261.13979 q -4.439677,0 -8.2578,2.21984 -3.7293283,2.17544 -5.9047701,5.90477 -2.2198385,3.81812 -2.2198385,8.2578 0,4.79485 2.6194094,8.83495 2.530616,3.90692 6.7039122,5.94917 l 0.532761,-9.94488 -1.198712,-0.39957 q -1.553887,-0.71035 -2.5306163,-2.57501 -0.9767289,-1.90906 -0.9767289,-4.43968 0,-1.82026 0.8435386,-3.46294 0.7991419,-1.59829 2.1310446,-2.57502 1.331904,-0.97673 2.7526,-0.97673 v 0 q 1.420697,0 2.7526,0.97673 1.331903,0.97673 2.131045,2.57502 0.843539,1.64268 0.843539,3.46294 0,2.53062 -0.976729,4.43968 -0.976729,1.86466 -2.530616,2.57501 l -1.198713,0.44397 0.577158,11.0104 q 1.997855,0.48836 3.906916,0.48836 2.663806,0 5.194422,-0.88793 l 0.532761,-9.81169 q -0.976729,-0.22198 -1.820268,-0.79914 -0.843538,-0.57716 -1.376299,-1.4207 -0.399571,-0.57715 -0.221984,-3.95131 0.13319,-2.44182 0.532761,-5.99356 l 0.355174,-3.10778 h 1.021126 v 11.0104 h 1.021126 v -11.0104 h 1.109919 v 11.0104 H 26.8695 v -11.0104 h 1.109919 v 11.0104 h 1.021126 v -11.0104 h 0.799141 l 0.355175,3.10778 q 0.399571,3.55174 0.532761,5.99356 0.177587,3.37416 -0.221984,3.99571 -0.532761,0.79914 -1.3763,1.3763 -0.799142,0.57716 -1.775871,0.79914 l -0.0444,0.0444 0.443967,8.43539 q 3.729329,-2.17545 5.904771,-5.90477 2.264235,-3.81813 2.264235,-8.2578 0,-4.43968 -2.219839,-8.2578 -2.175441,-3.72933 -5.90477,-5.90477 -3.818122,-2.21984 -8.257799,-2.21984 z m -8.834958,12.16471 q 0.0444,-0.13319 0.08879,-0.31077 0.0444,-0.17759 0.0444,-0.17759 0.0444,-0.13319 -0.133191,-0.22199 -0.13319,-0.0888 -0.26638,0.0444 l -0.266381,0.44397 q -0.3107773,0.57716 -0.4439676,1.06552 -0.2663806,0.79914 -0.3107774,1.50949 -0.044397,0.39957 -0.044397,0.88794 0.044397,0.44396 0.177587,0.88793 0.3551742,1.02113 0.5327617,1.3763 0.355174,0.75475 0.932332,1.28751 0.310777,0.35517 0.799142,0.66595 l 0.177587,0.13319 q 0.221984,0.0888 0.355174,0.13319 0.13319,0.0444 0.177587,-0.0888 0.0444,-0.13319 -0.0444,-0.22199 l -0.26638,-0.26638 q -0.08879,-0.13319 -0.266381,-0.44396 l -0.266381,-0.35518 q -0.26638,-0.39957 -0.577158,-1.15432 0.399571,1.02113 -0.488364,-1.37629 -0.08879,-0.31078 -0.13319,-0.71035 l -0.0444,-0.75475 q 0,-0.79914 0.08879,-1.3763 0.08879,-0.75474 0.177587,-0.97673 z m 8.834958,-15.22809 q -5.283216,0 -9.8116866,2.66381 -4.3952803,2.57501 -6.9702929,6.97029 -2.6194095,4.52847 -2.6194095,9.81169 0,5.28321 2.6194095,9.81168 2.5750126,4.39528 6.9702929,6.9703 4.5284706,2.6194 9.8116866,2.6194 5.283215,0 9.811686,-2.6194 4.39528,-2.57502 6.970293,-6.9703 2.619409,-4.52847 2.619409,-9.81168 0.0444,-5.28322 -2.619409,-9.81169 -2.575013,-4.39528 -6.970293,-6.97029 -4.528471,-2.66381 -9.811686,-2.66381 z m 0,37.42648 q -4.883645,0 -9.056941,-2.48622 -4.0845034,-2.35303 -6.481929,-6.43753 -2.4418223,-4.1733 -2.4418223,-9.05694 0,-4.88365 2.4418223,-9.05695 2.3974256,-4.0845 6.481929,-6.48192 4.173296,-2.44183 9.056941,-2.44183 4.883644,0 9.056941,2.44183 4.084503,2.39742 6.437532,6.48192 2.486219,4.1733 2.486219,9.05695 0,4.88364 -2.486219,9.05694 -2.353029,4.0845 -6.437532,6.43753 -4.173297,2.48622 -9.056941,2.48622 z"
         style="font-style:normal;font-variant:normal;font-weight:normal;font-stretch:normal;font-family:IcoFont;-inkscape-font-specification:IcoFont;fill:#a33db4;fill-opacity:1;stroke-width:3.94637942px"
         id="path819" />
    </g>
  </g>
</svg>
